G75*
%MOIN*%
%OFA0B0*%
%FSLAX25Y25*%
%IPPOS*%
%LPD*%
%AMOC8*
5,1,8,0,0,1.08239X$1,22.5*
%
%ADD10R,0.06400X0.02400*%
%ADD11R,0.03150X0.03150*%
%ADD12R,0.04724X0.05118*%
%ADD13R,0.05118X0.04724*%
%ADD14R,0.06600X0.01700*%
%ADD15R,0.07400X0.07400*%
%ADD16C,0.07400*%
%ADD17R,0.15748X0.06693*%
%ADD18C,0.00600*%
%ADD19C,0.02978*%
D10*
X0013723Y0022363D03*
X0013723Y0029843D03*
X0023523Y0026103D03*
D11*
X0023198Y0036812D03*
X0017198Y0036812D03*
X0035473Y0054402D03*
X0035473Y0060402D03*
X0038780Y0078143D03*
X0038780Y0084143D03*
X0043576Y0040670D03*
X0049576Y0040670D03*
X0049576Y0034568D03*
X0049576Y0028465D03*
X0043576Y0028465D03*
X0043576Y0034568D03*
X0043576Y0022363D03*
X0049576Y0022363D03*
X0058143Y0022363D03*
X0064143Y0022363D03*
X0064143Y0028465D03*
X0064143Y0034568D03*
X0058143Y0034568D03*
X0058143Y0028465D03*
X0058143Y0040670D03*
X0064143Y0040670D03*
X0086261Y0077709D03*
X0086261Y0083709D03*
D12*
X0033646Y0009568D03*
X0025646Y0009568D03*
D13*
X0086497Y0056316D03*
X0086497Y0064316D03*
D14*
X0075857Y0064587D03*
X0075857Y0062028D03*
X0075857Y0059469D03*
X0075857Y0056910D03*
X0075857Y0054351D03*
X0075857Y0051792D03*
X0075857Y0067146D03*
X0075857Y0069705D03*
X0075857Y0072265D03*
X0075857Y0074824D03*
X0075857Y0077383D03*
X0075857Y0079942D03*
X0075857Y0082501D03*
X0075857Y0085060D03*
X0047373Y0085060D03*
X0047373Y0082501D03*
X0047373Y0079942D03*
X0047373Y0077383D03*
X0047373Y0074824D03*
X0047373Y0072265D03*
X0047373Y0069705D03*
X0047373Y0067146D03*
X0047373Y0064587D03*
X0047373Y0062028D03*
X0047373Y0059469D03*
X0047373Y0056910D03*
X0047373Y0054351D03*
X0047373Y0051792D03*
D15*
X0032796Y0020985D03*
X0048229Y0009174D03*
X0095788Y0044607D03*
X0062245Y0095788D03*
X0009174Y0064292D03*
D16*
X0009174Y0054292D03*
X0009174Y0044292D03*
X0024922Y0053859D03*
X0024922Y0063859D03*
X0024922Y0073859D03*
X0024922Y0083859D03*
X0024922Y0093859D03*
X0042245Y0095788D03*
X0052245Y0095788D03*
X0095788Y0064607D03*
X0095788Y0054607D03*
X0068229Y0009174D03*
X0058229Y0009174D03*
X0032796Y0030985D03*
X0032796Y0040985D03*
D17*
X0079255Y0042823D03*
X0079250Y0033041D03*
X0079221Y0023154D03*
D18*
X0013723Y0022363D02*
X0013300Y0022900D01*
X0009100Y0027100D01*
X0009100Y0031300D01*
X0013900Y0036100D01*
X0013900Y0046300D01*
X0009700Y0050500D01*
X0009700Y0054100D01*
X0009174Y0054292D01*
X0009700Y0054700D01*
X0013900Y0058900D01*
X0013900Y0069700D01*
X0026500Y0082300D01*
X0024922Y0083859D01*
X0025300Y0083500D01*
X0026500Y0082300D01*
X0030100Y0078700D01*
X0038500Y0078700D01*
X0038780Y0078143D01*
X0042100Y0076900D02*
X0029500Y0064300D01*
X0025300Y0064300D01*
X0024922Y0063859D01*
X0019900Y0068500D02*
X0024700Y0073300D01*
X0024922Y0073859D01*
X0019900Y0068500D02*
X0019900Y0051700D01*
X0025300Y0046300D01*
X0030100Y0051100D01*
X0030100Y0053500D01*
X0034900Y0058300D01*
X0034900Y0060100D01*
X0035473Y0060402D01*
X0038500Y0063700D02*
X0038500Y0046900D01*
X0033100Y0041500D01*
X0032796Y0040985D01*
X0039700Y0039700D02*
X0039700Y0054700D01*
X0043900Y0058900D01*
X0046900Y0058900D01*
X0047373Y0059469D01*
X0047500Y0061900D02*
X0047373Y0062028D01*
X0047500Y0061900D02*
X0052900Y0061900D01*
X0070300Y0044500D01*
X0070300Y0028900D01*
X0075700Y0023500D01*
X0078700Y0023500D01*
X0079221Y0023154D01*
X0079250Y0033041D02*
X0079300Y0033100D01*
X0082300Y0033100D01*
X0088300Y0039100D01*
X0091900Y0035500D01*
X0094300Y0035500D01*
X0095500Y0036700D01*
X0095500Y0044500D01*
X0095788Y0044607D01*
X0090700Y0040300D02*
X0093100Y0037900D01*
X0090700Y0040300D02*
X0090700Y0066700D01*
X0080500Y0076900D01*
X0076300Y0076900D01*
X0075857Y0077383D01*
X0075700Y0079900D02*
X0072700Y0079900D01*
X0069100Y0076300D01*
X0069100Y0074500D01*
X0066700Y0073300D02*
X0067900Y0072100D01*
X0075700Y0072100D01*
X0075857Y0072265D01*
X0075857Y0064587D02*
X0076300Y0064300D01*
X0085900Y0064300D01*
X0086497Y0064316D01*
X0079300Y0061900D02*
X0076300Y0061900D01*
X0075857Y0062028D01*
X0079300Y0061900D02*
X0084700Y0056500D01*
X0085900Y0056500D01*
X0086497Y0056316D01*
X0086500Y0055900D01*
X0086500Y0049725D01*
X0086106Y0050119D01*
X0082796Y0050119D01*
X0086500Y0049725D02*
X0086500Y0048100D01*
X0088300Y0046300D01*
X0088300Y0039100D01*
X0079255Y0042823D02*
X0078700Y0043300D01*
X0073300Y0048700D01*
X0075857Y0051792D02*
X0075700Y0052300D01*
X0066100Y0052300D01*
X0061900Y0056500D01*
X0060700Y0050500D02*
X0052900Y0058300D01*
X0051100Y0056500D02*
X0047500Y0056500D01*
X0047373Y0056910D01*
X0047373Y0054351D02*
X0046900Y0054100D01*
X0043900Y0054100D01*
X0042700Y0052900D01*
X0042700Y0050500D01*
X0042100Y0049900D01*
X0042700Y0050500D02*
X0043300Y0049900D01*
X0043300Y0040900D01*
X0043576Y0040670D01*
X0039700Y0039700D02*
X0043300Y0036100D01*
X0043300Y0034900D01*
X0043576Y0034568D01*
X0046900Y0033100D02*
X0046900Y0045700D01*
X0051700Y0050500D01*
X0051700Y0055900D01*
X0051100Y0056500D01*
X0047500Y0064300D02*
X0047373Y0064587D01*
X0047500Y0064300D02*
X0057700Y0064300D01*
X0067300Y0054700D01*
X0072100Y0054700D02*
X0062500Y0064300D01*
X0062500Y0081100D01*
X0052900Y0090700D01*
X0047500Y0090700D01*
X0042700Y0095500D01*
X0042245Y0095788D01*
X0052245Y0095788D02*
X0052300Y0095500D01*
X0067300Y0080500D01*
X0067900Y0080500D01*
X0066700Y0079300D01*
X0066700Y0073300D01*
X0067900Y0080500D02*
X0072100Y0084700D01*
X0075700Y0084700D01*
X0075857Y0085060D01*
X0076300Y0084700D01*
X0079300Y0084700D01*
X0079900Y0084100D01*
X0085900Y0084100D01*
X0086261Y0083709D01*
X0088900Y0081700D02*
X0088900Y0085900D01*
X0079300Y0095500D01*
X0062500Y0095500D01*
X0062245Y0095788D01*
X0075857Y0082501D02*
X0076300Y0082300D01*
X0079300Y0082300D01*
X0083500Y0078100D01*
X0085900Y0078100D01*
X0086261Y0077709D01*
X0086500Y0078100D01*
X0086500Y0079300D01*
X0088900Y0081700D01*
X0075857Y0079942D02*
X0075700Y0079900D01*
X0060100Y0079900D02*
X0047500Y0079900D01*
X0047373Y0079942D01*
X0047373Y0077383D02*
X0046900Y0076900D01*
X0042100Y0076900D01*
X0043900Y0074500D02*
X0025300Y0055900D01*
X0025300Y0054100D01*
X0024922Y0053859D01*
X0025300Y0046300D02*
X0017500Y0038500D01*
X0017500Y0037300D01*
X0017198Y0036812D01*
X0016900Y0036700D01*
X0016900Y0033100D01*
X0013900Y0030100D01*
X0013723Y0029843D01*
X0019900Y0028900D02*
X0013900Y0022900D01*
X0013723Y0022363D01*
X0013900Y0022300D01*
X0025300Y0010900D01*
X0025300Y0009700D01*
X0025646Y0009568D01*
X0025900Y0009100D01*
X0028900Y0006100D01*
X0036700Y0006100D01*
X0037300Y0006700D01*
X0037300Y0007300D01*
X0043900Y0013900D01*
X0052300Y0013900D01*
X0056500Y0009700D01*
X0057700Y0009700D01*
X0058229Y0009174D01*
X0056880Y0015100D02*
X0056791Y0015100D01*
X0054450Y0017442D01*
X0056880Y0015100D02*
X0043403Y0015100D01*
X0037871Y0009568D01*
X0033646Y0009568D01*
X0043576Y0022363D02*
X0043900Y0022900D01*
X0043900Y0024100D01*
X0046900Y0027100D01*
X0046900Y0030700D01*
X0048100Y0031900D01*
X0060100Y0031900D01*
X0060700Y0032500D01*
X0060700Y0050500D01*
X0057700Y0040900D02*
X0049900Y0040900D01*
X0049576Y0040670D01*
X0049900Y0034900D02*
X0049576Y0034568D01*
X0049900Y0034900D02*
X0057700Y0034900D01*
X0058143Y0034568D01*
X0057700Y0028900D02*
X0058143Y0028465D01*
X0057700Y0028900D02*
X0049900Y0028900D01*
X0049576Y0028465D01*
X0046900Y0033100D02*
X0043900Y0030100D01*
X0043900Y0028900D01*
X0043576Y0028465D01*
X0049576Y0022363D02*
X0049900Y0022300D01*
X0057700Y0022300D01*
X0058143Y0022363D01*
X0064143Y0022363D02*
X0056880Y0015100D01*
X0064143Y0022363D02*
X0064300Y0022900D01*
X0064300Y0028300D01*
X0064143Y0028465D01*
X0064300Y0028900D01*
X0064300Y0034300D01*
X0064143Y0034568D01*
X0064300Y0034900D01*
X0064300Y0040300D01*
X0064143Y0040670D01*
X0058143Y0040670D02*
X0057700Y0040900D01*
X0072100Y0054700D02*
X0075700Y0054700D01*
X0075857Y0054351D01*
X0057100Y0066700D02*
X0051700Y0072100D01*
X0047500Y0072100D01*
X0047373Y0072265D01*
X0046900Y0074500D02*
X0047373Y0074824D01*
X0046900Y0074500D02*
X0043900Y0074500D01*
X0044500Y0069700D02*
X0038500Y0063700D01*
X0044500Y0069700D02*
X0046900Y0069700D01*
X0047373Y0069705D01*
X0047500Y0067300D02*
X0047373Y0067146D01*
X0047500Y0067300D02*
X0052900Y0067300D01*
X0046900Y0084700D02*
X0039100Y0084700D01*
X0038780Y0084143D01*
X0038500Y0084700D01*
X0034300Y0084700D01*
X0025300Y0093700D01*
X0024922Y0093859D01*
X0046900Y0084700D02*
X0047373Y0085060D01*
X0035473Y0054402D02*
X0034900Y0054100D01*
X0019900Y0039100D01*
X0019900Y0028900D01*
X0023500Y0026500D02*
X0023523Y0026103D01*
X0023500Y0026500D02*
X0023500Y0031300D01*
X0032500Y0031300D01*
X0032796Y0030985D01*
X0023500Y0031300D02*
X0023500Y0036700D01*
X0023198Y0036812D01*
D19*
X0042100Y0049900D03*
X0052900Y0058300D03*
X0061900Y0056500D03*
X0067300Y0054700D03*
X0073300Y0048700D03*
X0082796Y0050119D03*
X0093100Y0037900D03*
X0069100Y0074500D03*
X0060100Y0079900D03*
X0052900Y0067300D03*
X0057100Y0066700D03*
X0054450Y0017442D03*
M02*
