%
M48
M72
T01C0.01378
T02C0.04000
T03C0.11811
%
T01
X42100Y49900
X52900Y58300
X61900Y56500
X67300Y54700
X73300Y48700
X82796Y50119
X93100Y37900
X69100Y74500
X60100Y79900
X52900Y67300
X57100Y66700
X54450Y17442
T02
X58229Y9174
X48229Y9174
X32796Y20985
X32796Y30985
X32796Y40985
X24922Y53859
X24922Y63859
X24922Y73859
X24922Y83859
X24922Y93859
X42245Y95788
X52245Y95788
X62245Y95788
X95788Y64607
X95788Y54607
X95788Y44607
X68229Y9174
X9174Y44292
X9174Y54292
X9174Y64292
T03
X10158Y10158
X10158Y94804
X94804Y94804
X94804Y10158
M30
