G75*
%MOIN*%
%OFA0B0*%
%FSLAX25Y25*%
%IPPOS*%
%LPD*%
%AMOC8*
5,1,8,0,0,1.08239X$1,22.5*
%
%ADD10C,0.00000*%
%ADD11R,0.06400X0.02400*%
%ADD12R,0.03150X0.03150*%
%ADD13R,0.04724X0.05118*%
%ADD14R,0.05118X0.04724*%
%ADD15R,0.06600X0.01700*%
%ADD16R,0.07400X0.07400*%
%ADD17C,0.07400*%
%ADD18R,0.15748X0.06693*%
%ADD19C,0.00600*%
%ADD20C,0.02978*%
D10*
X0001300Y0001300D02*
X0001300Y0103662D01*
X0103662Y0103662D01*
X0103662Y0001300D01*
X0001300Y0001300D01*
X0004252Y0010158D02*
X0004254Y0010311D01*
X0004260Y0010465D01*
X0004270Y0010618D01*
X0004284Y0010770D01*
X0004302Y0010923D01*
X0004324Y0011074D01*
X0004349Y0011225D01*
X0004379Y0011376D01*
X0004413Y0011526D01*
X0004450Y0011674D01*
X0004491Y0011822D01*
X0004536Y0011968D01*
X0004585Y0012114D01*
X0004638Y0012258D01*
X0004694Y0012400D01*
X0004754Y0012541D01*
X0004818Y0012681D01*
X0004885Y0012819D01*
X0004956Y0012955D01*
X0005031Y0013089D01*
X0005108Y0013221D01*
X0005190Y0013351D01*
X0005274Y0013479D01*
X0005362Y0013605D01*
X0005453Y0013728D01*
X0005547Y0013849D01*
X0005645Y0013967D01*
X0005745Y0014083D01*
X0005849Y0014196D01*
X0005955Y0014307D01*
X0006064Y0014415D01*
X0006176Y0014520D01*
X0006290Y0014621D01*
X0006408Y0014720D01*
X0006527Y0014816D01*
X0006649Y0014909D01*
X0006774Y0014998D01*
X0006901Y0015085D01*
X0007030Y0015167D01*
X0007161Y0015247D01*
X0007294Y0015323D01*
X0007429Y0015396D01*
X0007566Y0015465D01*
X0007705Y0015530D01*
X0007845Y0015592D01*
X0007987Y0015650D01*
X0008130Y0015705D01*
X0008275Y0015756D01*
X0008421Y0015803D01*
X0008568Y0015846D01*
X0008716Y0015885D01*
X0008865Y0015921D01*
X0009015Y0015952D01*
X0009166Y0015980D01*
X0009317Y0016004D01*
X0009470Y0016024D01*
X0009622Y0016040D01*
X0009775Y0016052D01*
X0009928Y0016060D01*
X0010081Y0016064D01*
X0010235Y0016064D01*
X0010388Y0016060D01*
X0010541Y0016052D01*
X0010694Y0016040D01*
X0010846Y0016024D01*
X0010999Y0016004D01*
X0011150Y0015980D01*
X0011301Y0015952D01*
X0011451Y0015921D01*
X0011600Y0015885D01*
X0011748Y0015846D01*
X0011895Y0015803D01*
X0012041Y0015756D01*
X0012186Y0015705D01*
X0012329Y0015650D01*
X0012471Y0015592D01*
X0012611Y0015530D01*
X0012750Y0015465D01*
X0012887Y0015396D01*
X0013022Y0015323D01*
X0013155Y0015247D01*
X0013286Y0015167D01*
X0013415Y0015085D01*
X0013542Y0014998D01*
X0013667Y0014909D01*
X0013789Y0014816D01*
X0013908Y0014720D01*
X0014026Y0014621D01*
X0014140Y0014520D01*
X0014252Y0014415D01*
X0014361Y0014307D01*
X0014467Y0014196D01*
X0014571Y0014083D01*
X0014671Y0013967D01*
X0014769Y0013849D01*
X0014863Y0013728D01*
X0014954Y0013605D01*
X0015042Y0013479D01*
X0015126Y0013351D01*
X0015208Y0013221D01*
X0015285Y0013089D01*
X0015360Y0012955D01*
X0015431Y0012819D01*
X0015498Y0012681D01*
X0015562Y0012541D01*
X0015622Y0012400D01*
X0015678Y0012258D01*
X0015731Y0012114D01*
X0015780Y0011968D01*
X0015825Y0011822D01*
X0015866Y0011674D01*
X0015903Y0011526D01*
X0015937Y0011376D01*
X0015967Y0011225D01*
X0015992Y0011074D01*
X0016014Y0010923D01*
X0016032Y0010770D01*
X0016046Y0010618D01*
X0016056Y0010465D01*
X0016062Y0010311D01*
X0016064Y0010158D01*
X0016062Y0010005D01*
X0016056Y0009851D01*
X0016046Y0009698D01*
X0016032Y0009546D01*
X0016014Y0009393D01*
X0015992Y0009242D01*
X0015967Y0009091D01*
X0015937Y0008940D01*
X0015903Y0008790D01*
X0015866Y0008642D01*
X0015825Y0008494D01*
X0015780Y0008348D01*
X0015731Y0008202D01*
X0015678Y0008058D01*
X0015622Y0007916D01*
X0015562Y0007775D01*
X0015498Y0007635D01*
X0015431Y0007497D01*
X0015360Y0007361D01*
X0015285Y0007227D01*
X0015208Y0007095D01*
X0015126Y0006965D01*
X0015042Y0006837D01*
X0014954Y0006711D01*
X0014863Y0006588D01*
X0014769Y0006467D01*
X0014671Y0006349D01*
X0014571Y0006233D01*
X0014467Y0006120D01*
X0014361Y0006009D01*
X0014252Y0005901D01*
X0014140Y0005796D01*
X0014026Y0005695D01*
X0013908Y0005596D01*
X0013789Y0005500D01*
X0013667Y0005407D01*
X0013542Y0005318D01*
X0013415Y0005231D01*
X0013286Y0005149D01*
X0013155Y0005069D01*
X0013022Y0004993D01*
X0012887Y0004920D01*
X0012750Y0004851D01*
X0012611Y0004786D01*
X0012471Y0004724D01*
X0012329Y0004666D01*
X0012186Y0004611D01*
X0012041Y0004560D01*
X0011895Y0004513D01*
X0011748Y0004470D01*
X0011600Y0004431D01*
X0011451Y0004395D01*
X0011301Y0004364D01*
X0011150Y0004336D01*
X0010999Y0004312D01*
X0010846Y0004292D01*
X0010694Y0004276D01*
X0010541Y0004264D01*
X0010388Y0004256D01*
X0010235Y0004252D01*
X0010081Y0004252D01*
X0009928Y0004256D01*
X0009775Y0004264D01*
X0009622Y0004276D01*
X0009470Y0004292D01*
X0009317Y0004312D01*
X0009166Y0004336D01*
X0009015Y0004364D01*
X0008865Y0004395D01*
X0008716Y0004431D01*
X0008568Y0004470D01*
X0008421Y0004513D01*
X0008275Y0004560D01*
X0008130Y0004611D01*
X0007987Y0004666D01*
X0007845Y0004724D01*
X0007705Y0004786D01*
X0007566Y0004851D01*
X0007429Y0004920D01*
X0007294Y0004993D01*
X0007161Y0005069D01*
X0007030Y0005149D01*
X0006901Y0005231D01*
X0006774Y0005318D01*
X0006649Y0005407D01*
X0006527Y0005500D01*
X0006408Y0005596D01*
X0006290Y0005695D01*
X0006176Y0005796D01*
X0006064Y0005901D01*
X0005955Y0006009D01*
X0005849Y0006120D01*
X0005745Y0006233D01*
X0005645Y0006349D01*
X0005547Y0006467D01*
X0005453Y0006588D01*
X0005362Y0006711D01*
X0005274Y0006837D01*
X0005190Y0006965D01*
X0005108Y0007095D01*
X0005031Y0007227D01*
X0004956Y0007361D01*
X0004885Y0007497D01*
X0004818Y0007635D01*
X0004754Y0007775D01*
X0004694Y0007916D01*
X0004638Y0008058D01*
X0004585Y0008202D01*
X0004536Y0008348D01*
X0004491Y0008494D01*
X0004450Y0008642D01*
X0004413Y0008790D01*
X0004379Y0008940D01*
X0004349Y0009091D01*
X0004324Y0009242D01*
X0004302Y0009393D01*
X0004284Y0009546D01*
X0004270Y0009698D01*
X0004260Y0009851D01*
X0004254Y0010005D01*
X0004252Y0010158D01*
X0004252Y0094804D02*
X0004254Y0094957D01*
X0004260Y0095111D01*
X0004270Y0095264D01*
X0004284Y0095416D01*
X0004302Y0095569D01*
X0004324Y0095720D01*
X0004349Y0095871D01*
X0004379Y0096022D01*
X0004413Y0096172D01*
X0004450Y0096320D01*
X0004491Y0096468D01*
X0004536Y0096614D01*
X0004585Y0096760D01*
X0004638Y0096904D01*
X0004694Y0097046D01*
X0004754Y0097187D01*
X0004818Y0097327D01*
X0004885Y0097465D01*
X0004956Y0097601D01*
X0005031Y0097735D01*
X0005108Y0097867D01*
X0005190Y0097997D01*
X0005274Y0098125D01*
X0005362Y0098251D01*
X0005453Y0098374D01*
X0005547Y0098495D01*
X0005645Y0098613D01*
X0005745Y0098729D01*
X0005849Y0098842D01*
X0005955Y0098953D01*
X0006064Y0099061D01*
X0006176Y0099166D01*
X0006290Y0099267D01*
X0006408Y0099366D01*
X0006527Y0099462D01*
X0006649Y0099555D01*
X0006774Y0099644D01*
X0006901Y0099731D01*
X0007030Y0099813D01*
X0007161Y0099893D01*
X0007294Y0099969D01*
X0007429Y0100042D01*
X0007566Y0100111D01*
X0007705Y0100176D01*
X0007845Y0100238D01*
X0007987Y0100296D01*
X0008130Y0100351D01*
X0008275Y0100402D01*
X0008421Y0100449D01*
X0008568Y0100492D01*
X0008716Y0100531D01*
X0008865Y0100567D01*
X0009015Y0100598D01*
X0009166Y0100626D01*
X0009317Y0100650D01*
X0009470Y0100670D01*
X0009622Y0100686D01*
X0009775Y0100698D01*
X0009928Y0100706D01*
X0010081Y0100710D01*
X0010235Y0100710D01*
X0010388Y0100706D01*
X0010541Y0100698D01*
X0010694Y0100686D01*
X0010846Y0100670D01*
X0010999Y0100650D01*
X0011150Y0100626D01*
X0011301Y0100598D01*
X0011451Y0100567D01*
X0011600Y0100531D01*
X0011748Y0100492D01*
X0011895Y0100449D01*
X0012041Y0100402D01*
X0012186Y0100351D01*
X0012329Y0100296D01*
X0012471Y0100238D01*
X0012611Y0100176D01*
X0012750Y0100111D01*
X0012887Y0100042D01*
X0013022Y0099969D01*
X0013155Y0099893D01*
X0013286Y0099813D01*
X0013415Y0099731D01*
X0013542Y0099644D01*
X0013667Y0099555D01*
X0013789Y0099462D01*
X0013908Y0099366D01*
X0014026Y0099267D01*
X0014140Y0099166D01*
X0014252Y0099061D01*
X0014361Y0098953D01*
X0014467Y0098842D01*
X0014571Y0098729D01*
X0014671Y0098613D01*
X0014769Y0098495D01*
X0014863Y0098374D01*
X0014954Y0098251D01*
X0015042Y0098125D01*
X0015126Y0097997D01*
X0015208Y0097867D01*
X0015285Y0097735D01*
X0015360Y0097601D01*
X0015431Y0097465D01*
X0015498Y0097327D01*
X0015562Y0097187D01*
X0015622Y0097046D01*
X0015678Y0096904D01*
X0015731Y0096760D01*
X0015780Y0096614D01*
X0015825Y0096468D01*
X0015866Y0096320D01*
X0015903Y0096172D01*
X0015937Y0096022D01*
X0015967Y0095871D01*
X0015992Y0095720D01*
X0016014Y0095569D01*
X0016032Y0095416D01*
X0016046Y0095264D01*
X0016056Y0095111D01*
X0016062Y0094957D01*
X0016064Y0094804D01*
X0016062Y0094651D01*
X0016056Y0094497D01*
X0016046Y0094344D01*
X0016032Y0094192D01*
X0016014Y0094039D01*
X0015992Y0093888D01*
X0015967Y0093737D01*
X0015937Y0093586D01*
X0015903Y0093436D01*
X0015866Y0093288D01*
X0015825Y0093140D01*
X0015780Y0092994D01*
X0015731Y0092848D01*
X0015678Y0092704D01*
X0015622Y0092562D01*
X0015562Y0092421D01*
X0015498Y0092281D01*
X0015431Y0092143D01*
X0015360Y0092007D01*
X0015285Y0091873D01*
X0015208Y0091741D01*
X0015126Y0091611D01*
X0015042Y0091483D01*
X0014954Y0091357D01*
X0014863Y0091234D01*
X0014769Y0091113D01*
X0014671Y0090995D01*
X0014571Y0090879D01*
X0014467Y0090766D01*
X0014361Y0090655D01*
X0014252Y0090547D01*
X0014140Y0090442D01*
X0014026Y0090341D01*
X0013908Y0090242D01*
X0013789Y0090146D01*
X0013667Y0090053D01*
X0013542Y0089964D01*
X0013415Y0089877D01*
X0013286Y0089795D01*
X0013155Y0089715D01*
X0013022Y0089639D01*
X0012887Y0089566D01*
X0012750Y0089497D01*
X0012611Y0089432D01*
X0012471Y0089370D01*
X0012329Y0089312D01*
X0012186Y0089257D01*
X0012041Y0089206D01*
X0011895Y0089159D01*
X0011748Y0089116D01*
X0011600Y0089077D01*
X0011451Y0089041D01*
X0011301Y0089010D01*
X0011150Y0088982D01*
X0010999Y0088958D01*
X0010846Y0088938D01*
X0010694Y0088922D01*
X0010541Y0088910D01*
X0010388Y0088902D01*
X0010235Y0088898D01*
X0010081Y0088898D01*
X0009928Y0088902D01*
X0009775Y0088910D01*
X0009622Y0088922D01*
X0009470Y0088938D01*
X0009317Y0088958D01*
X0009166Y0088982D01*
X0009015Y0089010D01*
X0008865Y0089041D01*
X0008716Y0089077D01*
X0008568Y0089116D01*
X0008421Y0089159D01*
X0008275Y0089206D01*
X0008130Y0089257D01*
X0007987Y0089312D01*
X0007845Y0089370D01*
X0007705Y0089432D01*
X0007566Y0089497D01*
X0007429Y0089566D01*
X0007294Y0089639D01*
X0007161Y0089715D01*
X0007030Y0089795D01*
X0006901Y0089877D01*
X0006774Y0089964D01*
X0006649Y0090053D01*
X0006527Y0090146D01*
X0006408Y0090242D01*
X0006290Y0090341D01*
X0006176Y0090442D01*
X0006064Y0090547D01*
X0005955Y0090655D01*
X0005849Y0090766D01*
X0005745Y0090879D01*
X0005645Y0090995D01*
X0005547Y0091113D01*
X0005453Y0091234D01*
X0005362Y0091357D01*
X0005274Y0091483D01*
X0005190Y0091611D01*
X0005108Y0091741D01*
X0005031Y0091873D01*
X0004956Y0092007D01*
X0004885Y0092143D01*
X0004818Y0092281D01*
X0004754Y0092421D01*
X0004694Y0092562D01*
X0004638Y0092704D01*
X0004585Y0092848D01*
X0004536Y0092994D01*
X0004491Y0093140D01*
X0004450Y0093288D01*
X0004413Y0093436D01*
X0004379Y0093586D01*
X0004349Y0093737D01*
X0004324Y0093888D01*
X0004302Y0094039D01*
X0004284Y0094192D01*
X0004270Y0094344D01*
X0004260Y0094497D01*
X0004254Y0094651D01*
X0004252Y0094804D01*
X0088898Y0094804D02*
X0088900Y0094957D01*
X0088906Y0095111D01*
X0088916Y0095264D01*
X0088930Y0095416D01*
X0088948Y0095569D01*
X0088970Y0095720D01*
X0088995Y0095871D01*
X0089025Y0096022D01*
X0089059Y0096172D01*
X0089096Y0096320D01*
X0089137Y0096468D01*
X0089182Y0096614D01*
X0089231Y0096760D01*
X0089284Y0096904D01*
X0089340Y0097046D01*
X0089400Y0097187D01*
X0089464Y0097327D01*
X0089531Y0097465D01*
X0089602Y0097601D01*
X0089677Y0097735D01*
X0089754Y0097867D01*
X0089836Y0097997D01*
X0089920Y0098125D01*
X0090008Y0098251D01*
X0090099Y0098374D01*
X0090193Y0098495D01*
X0090291Y0098613D01*
X0090391Y0098729D01*
X0090495Y0098842D01*
X0090601Y0098953D01*
X0090710Y0099061D01*
X0090822Y0099166D01*
X0090936Y0099267D01*
X0091054Y0099366D01*
X0091173Y0099462D01*
X0091295Y0099555D01*
X0091420Y0099644D01*
X0091547Y0099731D01*
X0091676Y0099813D01*
X0091807Y0099893D01*
X0091940Y0099969D01*
X0092075Y0100042D01*
X0092212Y0100111D01*
X0092351Y0100176D01*
X0092491Y0100238D01*
X0092633Y0100296D01*
X0092776Y0100351D01*
X0092921Y0100402D01*
X0093067Y0100449D01*
X0093214Y0100492D01*
X0093362Y0100531D01*
X0093511Y0100567D01*
X0093661Y0100598D01*
X0093812Y0100626D01*
X0093963Y0100650D01*
X0094116Y0100670D01*
X0094268Y0100686D01*
X0094421Y0100698D01*
X0094574Y0100706D01*
X0094727Y0100710D01*
X0094881Y0100710D01*
X0095034Y0100706D01*
X0095187Y0100698D01*
X0095340Y0100686D01*
X0095492Y0100670D01*
X0095645Y0100650D01*
X0095796Y0100626D01*
X0095947Y0100598D01*
X0096097Y0100567D01*
X0096246Y0100531D01*
X0096394Y0100492D01*
X0096541Y0100449D01*
X0096687Y0100402D01*
X0096832Y0100351D01*
X0096975Y0100296D01*
X0097117Y0100238D01*
X0097257Y0100176D01*
X0097396Y0100111D01*
X0097533Y0100042D01*
X0097668Y0099969D01*
X0097801Y0099893D01*
X0097932Y0099813D01*
X0098061Y0099731D01*
X0098188Y0099644D01*
X0098313Y0099555D01*
X0098435Y0099462D01*
X0098554Y0099366D01*
X0098672Y0099267D01*
X0098786Y0099166D01*
X0098898Y0099061D01*
X0099007Y0098953D01*
X0099113Y0098842D01*
X0099217Y0098729D01*
X0099317Y0098613D01*
X0099415Y0098495D01*
X0099509Y0098374D01*
X0099600Y0098251D01*
X0099688Y0098125D01*
X0099772Y0097997D01*
X0099854Y0097867D01*
X0099931Y0097735D01*
X0100006Y0097601D01*
X0100077Y0097465D01*
X0100144Y0097327D01*
X0100208Y0097187D01*
X0100268Y0097046D01*
X0100324Y0096904D01*
X0100377Y0096760D01*
X0100426Y0096614D01*
X0100471Y0096468D01*
X0100512Y0096320D01*
X0100549Y0096172D01*
X0100583Y0096022D01*
X0100613Y0095871D01*
X0100638Y0095720D01*
X0100660Y0095569D01*
X0100678Y0095416D01*
X0100692Y0095264D01*
X0100702Y0095111D01*
X0100708Y0094957D01*
X0100710Y0094804D01*
X0100708Y0094651D01*
X0100702Y0094497D01*
X0100692Y0094344D01*
X0100678Y0094192D01*
X0100660Y0094039D01*
X0100638Y0093888D01*
X0100613Y0093737D01*
X0100583Y0093586D01*
X0100549Y0093436D01*
X0100512Y0093288D01*
X0100471Y0093140D01*
X0100426Y0092994D01*
X0100377Y0092848D01*
X0100324Y0092704D01*
X0100268Y0092562D01*
X0100208Y0092421D01*
X0100144Y0092281D01*
X0100077Y0092143D01*
X0100006Y0092007D01*
X0099931Y0091873D01*
X0099854Y0091741D01*
X0099772Y0091611D01*
X0099688Y0091483D01*
X0099600Y0091357D01*
X0099509Y0091234D01*
X0099415Y0091113D01*
X0099317Y0090995D01*
X0099217Y0090879D01*
X0099113Y0090766D01*
X0099007Y0090655D01*
X0098898Y0090547D01*
X0098786Y0090442D01*
X0098672Y0090341D01*
X0098554Y0090242D01*
X0098435Y0090146D01*
X0098313Y0090053D01*
X0098188Y0089964D01*
X0098061Y0089877D01*
X0097932Y0089795D01*
X0097801Y0089715D01*
X0097668Y0089639D01*
X0097533Y0089566D01*
X0097396Y0089497D01*
X0097257Y0089432D01*
X0097117Y0089370D01*
X0096975Y0089312D01*
X0096832Y0089257D01*
X0096687Y0089206D01*
X0096541Y0089159D01*
X0096394Y0089116D01*
X0096246Y0089077D01*
X0096097Y0089041D01*
X0095947Y0089010D01*
X0095796Y0088982D01*
X0095645Y0088958D01*
X0095492Y0088938D01*
X0095340Y0088922D01*
X0095187Y0088910D01*
X0095034Y0088902D01*
X0094881Y0088898D01*
X0094727Y0088898D01*
X0094574Y0088902D01*
X0094421Y0088910D01*
X0094268Y0088922D01*
X0094116Y0088938D01*
X0093963Y0088958D01*
X0093812Y0088982D01*
X0093661Y0089010D01*
X0093511Y0089041D01*
X0093362Y0089077D01*
X0093214Y0089116D01*
X0093067Y0089159D01*
X0092921Y0089206D01*
X0092776Y0089257D01*
X0092633Y0089312D01*
X0092491Y0089370D01*
X0092351Y0089432D01*
X0092212Y0089497D01*
X0092075Y0089566D01*
X0091940Y0089639D01*
X0091807Y0089715D01*
X0091676Y0089795D01*
X0091547Y0089877D01*
X0091420Y0089964D01*
X0091295Y0090053D01*
X0091173Y0090146D01*
X0091054Y0090242D01*
X0090936Y0090341D01*
X0090822Y0090442D01*
X0090710Y0090547D01*
X0090601Y0090655D01*
X0090495Y0090766D01*
X0090391Y0090879D01*
X0090291Y0090995D01*
X0090193Y0091113D01*
X0090099Y0091234D01*
X0090008Y0091357D01*
X0089920Y0091483D01*
X0089836Y0091611D01*
X0089754Y0091741D01*
X0089677Y0091873D01*
X0089602Y0092007D01*
X0089531Y0092143D01*
X0089464Y0092281D01*
X0089400Y0092421D01*
X0089340Y0092562D01*
X0089284Y0092704D01*
X0089231Y0092848D01*
X0089182Y0092994D01*
X0089137Y0093140D01*
X0089096Y0093288D01*
X0089059Y0093436D01*
X0089025Y0093586D01*
X0088995Y0093737D01*
X0088970Y0093888D01*
X0088948Y0094039D01*
X0088930Y0094192D01*
X0088916Y0094344D01*
X0088906Y0094497D01*
X0088900Y0094651D01*
X0088898Y0094804D01*
X0088898Y0010158D02*
X0088900Y0010311D01*
X0088906Y0010465D01*
X0088916Y0010618D01*
X0088930Y0010770D01*
X0088948Y0010923D01*
X0088970Y0011074D01*
X0088995Y0011225D01*
X0089025Y0011376D01*
X0089059Y0011526D01*
X0089096Y0011674D01*
X0089137Y0011822D01*
X0089182Y0011968D01*
X0089231Y0012114D01*
X0089284Y0012258D01*
X0089340Y0012400D01*
X0089400Y0012541D01*
X0089464Y0012681D01*
X0089531Y0012819D01*
X0089602Y0012955D01*
X0089677Y0013089D01*
X0089754Y0013221D01*
X0089836Y0013351D01*
X0089920Y0013479D01*
X0090008Y0013605D01*
X0090099Y0013728D01*
X0090193Y0013849D01*
X0090291Y0013967D01*
X0090391Y0014083D01*
X0090495Y0014196D01*
X0090601Y0014307D01*
X0090710Y0014415D01*
X0090822Y0014520D01*
X0090936Y0014621D01*
X0091054Y0014720D01*
X0091173Y0014816D01*
X0091295Y0014909D01*
X0091420Y0014998D01*
X0091547Y0015085D01*
X0091676Y0015167D01*
X0091807Y0015247D01*
X0091940Y0015323D01*
X0092075Y0015396D01*
X0092212Y0015465D01*
X0092351Y0015530D01*
X0092491Y0015592D01*
X0092633Y0015650D01*
X0092776Y0015705D01*
X0092921Y0015756D01*
X0093067Y0015803D01*
X0093214Y0015846D01*
X0093362Y0015885D01*
X0093511Y0015921D01*
X0093661Y0015952D01*
X0093812Y0015980D01*
X0093963Y0016004D01*
X0094116Y0016024D01*
X0094268Y0016040D01*
X0094421Y0016052D01*
X0094574Y0016060D01*
X0094727Y0016064D01*
X0094881Y0016064D01*
X0095034Y0016060D01*
X0095187Y0016052D01*
X0095340Y0016040D01*
X0095492Y0016024D01*
X0095645Y0016004D01*
X0095796Y0015980D01*
X0095947Y0015952D01*
X0096097Y0015921D01*
X0096246Y0015885D01*
X0096394Y0015846D01*
X0096541Y0015803D01*
X0096687Y0015756D01*
X0096832Y0015705D01*
X0096975Y0015650D01*
X0097117Y0015592D01*
X0097257Y0015530D01*
X0097396Y0015465D01*
X0097533Y0015396D01*
X0097668Y0015323D01*
X0097801Y0015247D01*
X0097932Y0015167D01*
X0098061Y0015085D01*
X0098188Y0014998D01*
X0098313Y0014909D01*
X0098435Y0014816D01*
X0098554Y0014720D01*
X0098672Y0014621D01*
X0098786Y0014520D01*
X0098898Y0014415D01*
X0099007Y0014307D01*
X0099113Y0014196D01*
X0099217Y0014083D01*
X0099317Y0013967D01*
X0099415Y0013849D01*
X0099509Y0013728D01*
X0099600Y0013605D01*
X0099688Y0013479D01*
X0099772Y0013351D01*
X0099854Y0013221D01*
X0099931Y0013089D01*
X0100006Y0012955D01*
X0100077Y0012819D01*
X0100144Y0012681D01*
X0100208Y0012541D01*
X0100268Y0012400D01*
X0100324Y0012258D01*
X0100377Y0012114D01*
X0100426Y0011968D01*
X0100471Y0011822D01*
X0100512Y0011674D01*
X0100549Y0011526D01*
X0100583Y0011376D01*
X0100613Y0011225D01*
X0100638Y0011074D01*
X0100660Y0010923D01*
X0100678Y0010770D01*
X0100692Y0010618D01*
X0100702Y0010465D01*
X0100708Y0010311D01*
X0100710Y0010158D01*
X0100708Y0010005D01*
X0100702Y0009851D01*
X0100692Y0009698D01*
X0100678Y0009546D01*
X0100660Y0009393D01*
X0100638Y0009242D01*
X0100613Y0009091D01*
X0100583Y0008940D01*
X0100549Y0008790D01*
X0100512Y0008642D01*
X0100471Y0008494D01*
X0100426Y0008348D01*
X0100377Y0008202D01*
X0100324Y0008058D01*
X0100268Y0007916D01*
X0100208Y0007775D01*
X0100144Y0007635D01*
X0100077Y0007497D01*
X0100006Y0007361D01*
X0099931Y0007227D01*
X0099854Y0007095D01*
X0099772Y0006965D01*
X0099688Y0006837D01*
X0099600Y0006711D01*
X0099509Y0006588D01*
X0099415Y0006467D01*
X0099317Y0006349D01*
X0099217Y0006233D01*
X0099113Y0006120D01*
X0099007Y0006009D01*
X0098898Y0005901D01*
X0098786Y0005796D01*
X0098672Y0005695D01*
X0098554Y0005596D01*
X0098435Y0005500D01*
X0098313Y0005407D01*
X0098188Y0005318D01*
X0098061Y0005231D01*
X0097932Y0005149D01*
X0097801Y0005069D01*
X0097668Y0004993D01*
X0097533Y0004920D01*
X0097396Y0004851D01*
X0097257Y0004786D01*
X0097117Y0004724D01*
X0096975Y0004666D01*
X0096832Y0004611D01*
X0096687Y0004560D01*
X0096541Y0004513D01*
X0096394Y0004470D01*
X0096246Y0004431D01*
X0096097Y0004395D01*
X0095947Y0004364D01*
X0095796Y0004336D01*
X0095645Y0004312D01*
X0095492Y0004292D01*
X0095340Y0004276D01*
X0095187Y0004264D01*
X0095034Y0004256D01*
X0094881Y0004252D01*
X0094727Y0004252D01*
X0094574Y0004256D01*
X0094421Y0004264D01*
X0094268Y0004276D01*
X0094116Y0004292D01*
X0093963Y0004312D01*
X0093812Y0004336D01*
X0093661Y0004364D01*
X0093511Y0004395D01*
X0093362Y0004431D01*
X0093214Y0004470D01*
X0093067Y0004513D01*
X0092921Y0004560D01*
X0092776Y0004611D01*
X0092633Y0004666D01*
X0092491Y0004724D01*
X0092351Y0004786D01*
X0092212Y0004851D01*
X0092075Y0004920D01*
X0091940Y0004993D01*
X0091807Y0005069D01*
X0091676Y0005149D01*
X0091547Y0005231D01*
X0091420Y0005318D01*
X0091295Y0005407D01*
X0091173Y0005500D01*
X0091054Y0005596D01*
X0090936Y0005695D01*
X0090822Y0005796D01*
X0090710Y0005901D01*
X0090601Y0006009D01*
X0090495Y0006120D01*
X0090391Y0006233D01*
X0090291Y0006349D01*
X0090193Y0006467D01*
X0090099Y0006588D01*
X0090008Y0006711D01*
X0089920Y0006837D01*
X0089836Y0006965D01*
X0089754Y0007095D01*
X0089677Y0007227D01*
X0089602Y0007361D01*
X0089531Y0007497D01*
X0089464Y0007635D01*
X0089400Y0007775D01*
X0089340Y0007916D01*
X0089284Y0008058D01*
X0089231Y0008202D01*
X0089182Y0008348D01*
X0089137Y0008494D01*
X0089096Y0008642D01*
X0089059Y0008790D01*
X0089025Y0008940D01*
X0088995Y0009091D01*
X0088970Y0009242D01*
X0088948Y0009393D01*
X0088930Y0009546D01*
X0088916Y0009698D01*
X0088906Y0009851D01*
X0088900Y0010005D01*
X0088898Y0010158D01*
D11*
X0023523Y0026103D03*
X0013723Y0022363D03*
X0013723Y0029843D03*
D12*
X0017198Y0036812D03*
X0023198Y0036812D03*
X0035473Y0054402D03*
X0035473Y0060402D03*
X0038780Y0078143D03*
X0038780Y0084143D03*
X0043576Y0040670D03*
X0049576Y0040670D03*
X0049576Y0034568D03*
X0049576Y0028465D03*
X0043576Y0028465D03*
X0043576Y0034568D03*
X0043576Y0022363D03*
X0049576Y0022363D03*
X0058143Y0022363D03*
X0064143Y0022363D03*
X0064143Y0028465D03*
X0064143Y0034568D03*
X0058143Y0034568D03*
X0058143Y0028465D03*
X0058143Y0040670D03*
X0064143Y0040670D03*
X0086261Y0077709D03*
X0086261Y0083709D03*
D13*
X0033646Y0009568D03*
X0025646Y0009568D03*
D14*
X0086497Y0056316D03*
X0086497Y0064316D03*
D15*
X0075857Y0064587D03*
X0075857Y0062028D03*
X0075857Y0059469D03*
X0075857Y0056910D03*
X0075857Y0054351D03*
X0075857Y0051792D03*
X0075857Y0067146D03*
X0075857Y0069705D03*
X0075857Y0072265D03*
X0075857Y0074824D03*
X0075857Y0077383D03*
X0075857Y0079942D03*
X0075857Y0082501D03*
X0075857Y0085060D03*
X0047373Y0085060D03*
X0047373Y0082501D03*
X0047373Y0079942D03*
X0047373Y0077383D03*
X0047373Y0074824D03*
X0047373Y0072265D03*
X0047373Y0069705D03*
X0047373Y0067146D03*
X0047373Y0064587D03*
X0047373Y0062028D03*
X0047373Y0059469D03*
X0047373Y0056910D03*
X0047373Y0054351D03*
X0047373Y0051792D03*
D16*
X0032796Y0020985D03*
X0048229Y0009174D03*
X0095788Y0044607D03*
X0062245Y0095788D03*
X0009174Y0064292D03*
D17*
X0009174Y0054292D03*
X0009174Y0044292D03*
X0024922Y0053859D03*
X0024922Y0063859D03*
X0024922Y0073859D03*
X0024922Y0083859D03*
X0024922Y0093859D03*
X0042245Y0095788D03*
X0052245Y0095788D03*
X0095788Y0064607D03*
X0095788Y0054607D03*
X0068229Y0009174D03*
X0058229Y0009174D03*
X0032796Y0030985D03*
X0032796Y0040985D03*
D18*
X0079255Y0042823D03*
X0079250Y0033041D03*
X0079221Y0023154D03*
D19*
X0078700Y0023500D01*
X0075700Y0023500D01*
X0070300Y0028900D01*
X0070300Y0044500D01*
X0052900Y0061900D01*
X0047500Y0061900D01*
X0047373Y0062028D01*
X0047500Y0064300D02*
X0047373Y0064587D01*
X0047500Y0064300D02*
X0057700Y0064300D01*
X0067300Y0054700D01*
X0066100Y0052300D02*
X0061900Y0056500D01*
X0066100Y0052300D02*
X0075700Y0052300D01*
X0075857Y0051792D01*
X0075857Y0054351D02*
X0075700Y0054700D01*
X0072100Y0054700D01*
X0062500Y0064300D01*
X0062500Y0081100D01*
X0052900Y0090700D01*
X0047500Y0090700D01*
X0042700Y0095500D01*
X0042245Y0095788D01*
X0052245Y0095788D02*
X0052300Y0095500D01*
X0067300Y0080500D01*
X0067900Y0080500D01*
X0066700Y0079300D01*
X0066700Y0073300D01*
X0067900Y0072100D01*
X0075700Y0072100D01*
X0075857Y0072265D01*
X0076300Y0076900D02*
X0075857Y0077383D01*
X0076300Y0076900D02*
X0080500Y0076900D01*
X0090700Y0066700D01*
X0090700Y0040300D01*
X0093100Y0037900D01*
X0095500Y0036700D02*
X0095500Y0044500D01*
X0095788Y0044607D01*
X0088300Y0046300D02*
X0088300Y0039100D01*
X0091900Y0035500D01*
X0094300Y0035500D01*
X0095500Y0036700D01*
X0088300Y0039100D02*
X0082300Y0033100D01*
X0079300Y0033100D01*
X0079250Y0033041D01*
X0079255Y0042823D02*
X0078700Y0043300D01*
X0073300Y0048700D01*
X0064143Y0040670D02*
X0064300Y0040300D01*
X0064300Y0034900D01*
X0064143Y0034568D01*
X0064300Y0034300D01*
X0064300Y0028900D01*
X0064143Y0028465D01*
X0064300Y0028300D01*
X0064300Y0022900D01*
X0064143Y0022363D01*
X0056880Y0015100D01*
X0056791Y0015100D01*
X0054450Y0017442D01*
X0056880Y0015100D02*
X0043403Y0015100D01*
X0037871Y0009568D01*
X0033646Y0009568D01*
X0037300Y0007300D02*
X0037300Y0006700D01*
X0036700Y0006100D01*
X0028900Y0006100D01*
X0025900Y0009100D01*
X0025646Y0009568D01*
X0025300Y0009700D01*
X0025300Y0010900D01*
X0013900Y0022300D01*
X0013723Y0022363D01*
X0013300Y0022900D01*
X0009100Y0027100D01*
X0009100Y0031300D01*
X0013900Y0036100D01*
X0013900Y0046300D01*
X0009700Y0050500D01*
X0009700Y0054100D01*
X0009174Y0054292D01*
X0009700Y0054700D01*
X0013900Y0058900D01*
X0013900Y0069700D01*
X0026500Y0082300D01*
X0024922Y0083859D01*
X0025300Y0083500D01*
X0026500Y0082300D01*
X0030100Y0078700D01*
X0038500Y0078700D01*
X0038780Y0078143D01*
X0042100Y0076900D02*
X0029500Y0064300D01*
X0025300Y0064300D01*
X0024922Y0063859D01*
X0019900Y0068500D02*
X0024700Y0073300D01*
X0024922Y0073859D01*
X0019900Y0068500D02*
X0019900Y0051700D01*
X0025300Y0046300D01*
X0030100Y0051100D01*
X0030100Y0053500D01*
X0034900Y0058300D01*
X0034900Y0060100D01*
X0035473Y0060402D01*
X0038500Y0063700D02*
X0038500Y0046900D01*
X0033100Y0041500D01*
X0032796Y0040985D01*
X0039700Y0039700D02*
X0039700Y0054700D01*
X0043900Y0058900D01*
X0046900Y0058900D01*
X0047373Y0059469D01*
X0047373Y0056910D02*
X0047500Y0056500D01*
X0051100Y0056500D01*
X0051700Y0055900D01*
X0051700Y0050500D01*
X0046900Y0045700D01*
X0046900Y0033100D01*
X0043900Y0030100D01*
X0043900Y0028900D01*
X0043576Y0028465D01*
X0046900Y0027100D02*
X0046900Y0030700D01*
X0048100Y0031900D01*
X0060100Y0031900D01*
X0060700Y0032500D01*
X0060700Y0050500D01*
X0052900Y0058300D01*
X0047373Y0054351D02*
X0046900Y0054100D01*
X0043900Y0054100D01*
X0042700Y0052900D01*
X0042700Y0050500D01*
X0042100Y0049900D01*
X0042700Y0050500D02*
X0043300Y0049900D01*
X0043300Y0040900D01*
X0043576Y0040670D01*
X0039700Y0039700D02*
X0043300Y0036100D01*
X0043300Y0034900D01*
X0043576Y0034568D01*
X0049576Y0034568D02*
X0049900Y0034900D01*
X0057700Y0034900D01*
X0058143Y0034568D01*
X0057700Y0028900D02*
X0058143Y0028465D01*
X0057700Y0028900D02*
X0049900Y0028900D01*
X0049576Y0028465D01*
X0046900Y0027100D02*
X0043900Y0024100D01*
X0043900Y0022900D01*
X0043576Y0022363D01*
X0049576Y0022363D02*
X0049900Y0022300D01*
X0057700Y0022300D01*
X0058143Y0022363D01*
X0052300Y0013900D02*
X0043900Y0013900D01*
X0037300Y0007300D01*
X0052300Y0013900D02*
X0056500Y0009700D01*
X0057700Y0009700D01*
X0058229Y0009174D01*
X0032796Y0030985D02*
X0032500Y0031300D01*
X0023500Y0031300D01*
X0023500Y0036700D01*
X0023198Y0036812D01*
X0019900Y0039100D02*
X0019900Y0028900D01*
X0013900Y0022900D01*
X0013723Y0022363D01*
X0013723Y0029843D02*
X0013900Y0030100D01*
X0016900Y0033100D01*
X0016900Y0036700D01*
X0017198Y0036812D01*
X0017500Y0037300D01*
X0017500Y0038500D01*
X0025300Y0046300D01*
X0024922Y0053859D02*
X0025300Y0054100D01*
X0025300Y0055900D01*
X0043900Y0074500D01*
X0046900Y0074500D01*
X0047373Y0074824D01*
X0046900Y0076900D02*
X0047373Y0077383D01*
X0046900Y0076900D02*
X0042100Y0076900D01*
X0047373Y0079942D02*
X0047500Y0079900D01*
X0060100Y0079900D01*
X0067900Y0080500D02*
X0072100Y0084700D01*
X0075700Y0084700D01*
X0075857Y0085060D01*
X0076300Y0084700D01*
X0079300Y0084700D01*
X0079900Y0084100D01*
X0085900Y0084100D01*
X0086261Y0083709D01*
X0088900Y0081700D02*
X0088900Y0085900D01*
X0079300Y0095500D01*
X0062500Y0095500D01*
X0062245Y0095788D01*
X0075857Y0082501D02*
X0076300Y0082300D01*
X0079300Y0082300D01*
X0083500Y0078100D01*
X0085900Y0078100D01*
X0086261Y0077709D01*
X0086500Y0078100D01*
X0086500Y0079300D01*
X0088900Y0081700D01*
X0075857Y0079942D02*
X0075700Y0079900D01*
X0072700Y0079900D01*
X0069100Y0076300D01*
X0069100Y0074500D01*
X0075857Y0064587D02*
X0076300Y0064300D01*
X0085900Y0064300D01*
X0086497Y0064316D01*
X0079300Y0061900D02*
X0076300Y0061900D01*
X0075857Y0062028D01*
X0079300Y0061900D02*
X0084700Y0056500D01*
X0085900Y0056500D01*
X0086497Y0056316D01*
X0086500Y0055900D01*
X0086500Y0049725D01*
X0086106Y0050119D01*
X0082796Y0050119D01*
X0086500Y0049725D02*
X0086500Y0048100D01*
X0088300Y0046300D01*
X0058143Y0040670D02*
X0057700Y0040900D01*
X0049900Y0040900D01*
X0049576Y0040670D01*
X0035473Y0054402D02*
X0034900Y0054100D01*
X0019900Y0039100D01*
X0023500Y0031300D02*
X0023500Y0026500D01*
X0023523Y0026103D01*
X0038500Y0063700D02*
X0044500Y0069700D01*
X0046900Y0069700D01*
X0047373Y0069705D01*
X0047500Y0072100D02*
X0047373Y0072265D01*
X0047500Y0072100D02*
X0051700Y0072100D01*
X0057100Y0066700D01*
X0052900Y0067300D02*
X0047500Y0067300D01*
X0047373Y0067146D01*
X0046900Y0084700D02*
X0039100Y0084700D01*
X0038780Y0084143D01*
X0038500Y0084700D01*
X0034300Y0084700D01*
X0025300Y0093700D01*
X0024922Y0093859D01*
X0046900Y0084700D02*
X0047373Y0085060D01*
D20*
X0060100Y0079900D03*
X0069100Y0074500D03*
X0057100Y0066700D03*
X0052900Y0067300D03*
X0052900Y0058300D03*
X0061900Y0056500D03*
X0067300Y0054700D03*
X0073300Y0048700D03*
X0082796Y0050119D03*
X0093100Y0037900D03*
X0054450Y0017442D03*
X0042100Y0049900D03*
M02*
